<svg xmlns="http://www.w3.org/2000/svg" width="152.365" height="52.691" viewBox="0 0 152.365 52.691">
  <g id="그룹_1661" data-name="그룹 1661" transform="translate(-752.115 -13.799)">
    <g id="그룹_1146" data-name="그룹 1146" transform="translate(752.816 40.764)">
      <path id="패스_234" data-name="패스 234" d="M766.1,190.552h-.07a12.01,12.01,0,0,1-5.013-.98,7.516,7.516,0,0,1-4.638-5.584,18.873,18.873,0,0,1-.373-4.024V165.356H760.5v14.349a21.3,21.3,0,0,0,.219,3.347,4.363,4.363,0,0,0,2.708,3.587,6.509,6.509,0,0,0,2.642.469,5.209,5.209,0,0,0,4.352-1.8,4.608,4.608,0,0,0,.964-2.256,21.956,21.956,0,0,0,.211-3.347V165.356h4.5v14.608a19.035,19.035,0,0,1-.375,4.024,7.893,7.893,0,0,1-1.376,3.053,8.152,8.152,0,0,1-3.3,2.531A11.833,11.833,0,0,1,766.1,190.552Z" transform="translate(-756.005 -165.034)" fill="#474645"/>
      <path id="패스_235" data-name="패스 235" d="M911.54,169.585a11.1,11.1,0,0,0-3.048-1.91,9.33,9.33,0,0,0-3.621-.693c-2.927,0-4.39.959-4.39,2.86a2.75,2.75,0,0,0,.982,2.238,9.172,9.172,0,0,0,2.695,1.466l2.461.963a14.98,14.98,0,0,1,5.012,3.025,5.725,5.725,0,0,1,1.767,4.247,6.993,6.993,0,0,1-.715,3.253,6.244,6.244,0,0,1-2.012,2.284,9.1,9.1,0,0,1-3.1,1.33,16.815,16.815,0,0,1-3.978.439,16.523,16.523,0,0,1-4.35-.549,9.723,9.723,0,0,1-3.568-1.8v-4.187a.271.271,0,0,1,.176-.269.264.264,0,0,1,.321.047,15.691,15.691,0,0,0,1.535,1.383,8.955,8.955,0,0,0,1.675,1.029,8.789,8.789,0,0,0,1.948.641,10.845,10.845,0,0,0,2.3.229,6.351,6.351,0,0,0,3.8-.889,3.2,3.2,0,0,0,1.158-2.716,3.024,3.024,0,0,0-1.071-2.365,10.506,10.506,0,0,0-3.106-1.752l-2.46-.969a17.308,17.308,0,0,1-2.442-1.157,8.685,8.685,0,0,1-1.93-1.465,6.254,6.254,0,0,1-1.264-1.881,6.148,6.148,0,0,1-.465-2.478,5.747,5.747,0,0,1,.643-2.767,5.512,5.512,0,0,1,1.818-1.98,9.161,9.161,0,0,1,2.822-1.2,14.505,14.505,0,0,1,3.6-.421,17.709,17.709,0,0,1,1.82.1,14.493,14.493,0,0,1,1.93.32,10.706,10.706,0,0,1,1.873.626,8.127,8.127,0,0,1,1.693,1.016v3.731a.286.286,0,0,1-.18.273A.274.274,0,0,1,911.54,169.585Z" transform="translate(-870.523 -163.57)" fill="#474645"/>
    </g>
    <g id="그룹_1148" data-name="그룹 1148" transform="translate(752.115 13.8)">
      <g id="그룹_1147" data-name="그룹 1147" transform="translate(6.874 4.69)">
        <path id="패스_236" data-name="패스 236" d="M793.742,55.275a1.929,1.929,0,0,1,2.795.2l4.272-3.67a4.852,4.852,0,0,1,1.224-6.773l-.844-1.564-9.658,9.739Z" transform="translate(-791.308 -42.819)" fill="#f8aa00"/>
        <path id="패스_237" data-name="패스 237" d="M904.624,116.644a3,3,0,0,1-2.456-1.278l-5.041,3.16.82,1.52h8.735l-1.273-3.509A3.013,3.013,0,0,1,904.624,116.644Z" transform="translate(-877.894 -101.77)" fill="#f8aa00"/>
        <path id="패스_238" data-name="패스 238" d="M806.333,122.228a1.931,1.931,0,0,1-1.684.987,1.956,1.956,0,0,1-.407-.044l-.994,2.5H820.3l-.8-1.482Z" transform="translate(-800.915 -107.396)" fill="#f8aa00"/>
        <path id="패스_239" data-name="패스 239" d="M880.269,86.406a4.877,4.877,0,0,1-1.992,2.083L881.52,94.5l5.023-3.148a2.991,2.991,0,0,1-.253-2.316Z" transform="translate(-862.437 -78.024)" fill="#f8aa00"/>
        <path id="패스_240" data-name="패스 240" d="M829.042,94.112a4.842,4.842,0,0,1-3.589-1.591L821.1,96.259a1.9,1.9,0,0,1,.006,1.311l12.848,1.914-3.091-5.729A4.846,4.846,0,0,1,829.042,94.112Z" transform="translate(-815.556 -83.038)" fill="#f8aa00"/>
        <path id="패스_241" data-name="패스 241" d="M947.4,86.1a3,3,0,0,1,1.413,2.125l2.24-.32-2.971-3Z" transform="translate(-919.112 -76.792)" fill="#f8aa00"/>
        <path id="패스_242" data-name="패스 242" d="M949.894,83.6" transform="translate(-921.16 -75.724)" fill="#1a1311"/>
        <path id="패스_243" data-name="패스 243" d="M967.691,101.549Z" transform="translate(-935.753 -90.44)" fill="#1a1311"/>
        <path id="패스_244" data-name="패스 244" d="M906.513,39.848l.006.006h0Z" transform="translate(-885.589 -39.848)" fill="#1a1311"/>
        <path id="패스_245" data-name="패스 245" d="M791.531,97.565" transform="translate(-791.308 -87.174)" fill="#1a1311"/>
        <path id="패스_246" data-name="패스 246" d="M790.295,98.814" transform="translate(-790.295 -88.198)" fill="#1a1311"/>
        <path id="패스_247" data-name="패스 247" d="M845.173,43.472" transform="translate(-835.293 -42.819)" fill="#1a1311"/>
        <path id="패스_248" data-name="패스 248" d="M847.573,41.054" transform="translate(-837.261 -40.837)" fill="#1a1311"/>
      </g>
      <path id="패스_249" data-name="패스 249" d="M848.487,20.4s2.571-1.743,5.6.781l3.652-3.137-3.83-3.845a1.315,1.315,0,0,0-1.874,0l-4.468,4.505Z" transform="translate(-830.387 -13.8)" fill="#f8aa00"/>
      <path id="패스_250" data-name="패스 250" d="M761.206,100.885l-2.217-2.071L752.3,105.6s-.654.824.481.878h8.228l1.027-2.584A2.058,2.058,0,0,1,761.206,100.885Z" transform="translate(-752.115 -83.508)" fill="#f8aa00"/>
      <path id="패스_251" data-name="패스 251" d="M948.038,102.326l-2.358.337a3.024,3.024,0,0,1-2.127,3.161l1.281,3.529h8.825s1.344.022.34-1.015Z" transform="translate(-909.087 -86.388)" fill="#f8aa00"/>
      <path id="패스_252" data-name="패스 252" d="M889.841,34.616l-3.661,3.156a4.891,4.891,0,0,1,.814,4.643l6.019,2.63a2.954,2.954,0,0,1,3.91-1.275l.728-1.277s-.2-.054-.164-.947c.054-1.243,0-6.746,0-6.746a1.485,1.485,0,0,0-1.365-1.333h-1.9a1.558,1.558,0,0,0-1.479,1.279V36.46s.023.849-.829.249Z" transform="translate(-862.043 -29.926)" fill="#f8aa00"/>
    </g>
    <g id="그룹_1149" data-name="그룹 1149" transform="translate(803.904 44.791)">
      <path id="패스_253" data-name="패스 253" d="M1048.053,203.145l.463-1.944,4.476-15.263h3.368l-6.587,21.453h-3.416l-6.585-21.453h3.369l4.474,15.263Z" transform="translate(-1039.771 -185.938)" fill="#474645"/>
      <path id="패스_254" data-name="패스 254" d="M1144.013,185.938v21.453h-3.238V185.938Z" transform="translate(-1122.59 -185.938)" fill="#474645"/>
      <path id="패스_255" data-name="패스 255" d="M1188.234,204.475v2.916h-11.75V185.938h3.238v18.537Z" transform="translate(-1151.871 -185.938)" fill="#474645"/>
      <path id="패스_256" data-name="패스 256" d="M1263.778,204.475v2.916h-11.753V185.938h3.238v18.537Z" transform="translate(-1213.811 -185.938)" fill="#474645"/>
    </g>
    <g id="그룹_1150" data-name="그룹 1150" transform="translate(855.928 44.546)">
      <path id="패스_257" data-name="패스 257" d="M1338.866,185.938l6.633,21.453h-3.238l-1.747-5.884h-6.765l-1.772,5.884h-3.244l6.612-21.453Zm-1.747,3.139-.516,2.05-2.212,7.6h5.45l-2.212-7.6Z" transform="translate(-1328.734 -185.692)" fill="#474645"/>
      <path id="패스_258" data-name="패스 258" d="M1436.828,189.983a7.183,7.183,0,0,0-2.582-1.984,7.566,7.566,0,0,0-3.077-.626,6.2,6.2,0,0,0-2.607.545,5.965,5.965,0,0,0-2.085,1.566,7.431,7.431,0,0,0-1.388,2.524,10.831,10.831,0,0,0-.5,3.439,9.883,9.883,0,0,0,1.633,6.105,5.863,5.863,0,0,0,4.974,2.135,4.869,4.869,0,0,0,1.8-.262,2.947,2.947,0,0,0,1.079-.735v-4.856h-4.317v-2.912h7.561v9.626a11.478,11.478,0,0,1-6.508,1.969,9.989,9.989,0,0,1-4.113-.791,7.977,7.977,0,0,1-2.967-2.231,9.858,9.858,0,0,1-1.815-3.486,15.562,15.562,0,0,1-.617-4.532,13.149,13.149,0,0,1,.732-4.523,10.266,10.266,0,0,1,2.018-3.441,8.761,8.761,0,0,1,3.061-2.18,9.652,9.652,0,0,1,3.859-.76,11.645,11.645,0,0,1,3.343.467,8.527,8.527,0,0,1,2.878,1.527v3.218a.284.284,0,0,1-.126.252A.158.158,0,0,1,1436.828,189.983Z" transform="translate(-1404.632 -184.574)" fill="#474645"/>
      <path id="패스_259" data-name="패스 259" d="M1541.014,207.391h-12.6V185.938h12.6v2.916h-9.386v5.436h8.74v2.886h-8.74v7.3h9.386Z" transform="translate(-1492.461 -185.692)" fill="#474645"/>
    </g>
  </g>
</svg>
